<svg xmlns="http://www.w3.org/2000/svg" width="220.334" height="220.334"><circle cx="63.167" cy="63.166" r="61.667" fill="#ff1a1a" transform="translate(0 100.238) scale(.95062)"/><ellipse cx="63.167" cy="63.166" rx="61.667" ry="47.232" fill="#d60909" transform="translate(0 100.238) scale(.95062)"/><path d="M1.426 160.285c0 32.38 26.246 58.623 58.622 58.623 32.376 0 58.622-26.244 58.622-58.623H1.426z" fill="#fff"/><path d="M60.048 205.185c32.376 0 58.622-20.104 58.622-44.9H1.426c0 24.796 26.246 44.9 58.622 44.9z" fill="#d8e5ea"/><path d="M60.048 100.238C26.937 100.238 0 127.175 0 160.285c0 33.111 26.937 60.049 60.048 60.049 33.11 0 60.048-26.938 60.048-60.049 0-33.11-26.937-60.047-60.048-60.047zm0 2.852c31.06 0 56.398 24.89 57.16 55.77H2.888c.761-30.88 26.1-55.77 57.16-55.77zm0 114.392c-31.06 0-56.399-24.89-57.16-55.77h114.32c-.762 30.88-26.1 55.77-57.16 55.77z" fill="#33363a"/><circle cx="63.167" cy="68.868" r="16.764" fill="#a7bbc1" transform="translate(0 100.238) scale(.95062)"/><circle cx="63.167" cy="63.167" r="16.764" fill="#fff" transform="translate(0 100.238) scale(.95062)"/><path d="M48.78 171.555c-6.225-6.224-6.224-16.313 0-22.538 6.223-6.223 16.313-6.223 22.536 0" fill="#d8e5ea"/><path d="M60.048 177.65a17.25 17.25 0 01-12.277-5.087c-6.769-6.768-6.769-17.783 0-24.554 6.77-6.769 17.784-6.769 24.553 0a17.255 17.255 0 015.087 12.278c0 4.637-1.806 8.998-5.087 12.277a17.247 17.247 0 01-12.276 5.085zm0-31.867a14.463 14.463 0 00-10.26 4.242c-5.656 5.66-5.656 14.865 0 20.522a14.415 14.415 0 0010.26 4.25c3.876 0 7.52-1.51 10.259-4.25a14.416 14.416 0 004.251-10.26c0-3.876-1.51-7.52-4.251-10.26a14.459 14.459 0 00-10.26-4.244z" fill="#33363a"/><path d="M65.47 165.708a7.671 7.671 0 01-10.84 0 7.666 7.666 0 1110.84 0z" fill="#fff"/><path d="M54.63 154.868a7.665 7.665 0 0110.84 10.84" fill="#d8e5ea"/><path d="M60.049 169.372a9.063 9.063 0 01-6.428-2.656c-3.545-3.546-3.545-9.313 0-12.857a9.025 9.025 0 016.427-2.664c2.429 0 4.712.947 6.429 2.664 3.544 3.543 3.544 9.31 0 12.856v.001a9.064 9.064 0 01-6.428 2.656zm-.001-15.325c-1.667 0-3.233.65-4.411 1.828a6.246 6.246 0 000 8.824c2.432 2.43 6.391 2.43 8.825 0a6.248 6.248 0 00-.001-8.824 6.205 6.205 0 00-4.413-1.828z" fill="#33363a"/></svg>