<?xml version="1.0" encoding="UTF-8" standalone="no"?>
<!-- Generator: Adobe Illustrator 19.0.0, SVG Export Plug-In . SVG Version: 6.00 Build 0)  -->

<svg
   xmlns:dc="http://purl.org/dc/elements/1.1/"
   xmlns:cc="http://creativecommons.org/ns#"
   xmlns:rdf="http://www.w3.org/1999/02/22-rdf-syntax-ns#"
   xmlns:svg="http://www.w3.org/2000/svg"
   xmlns="http://www.w3.org/2000/svg"
   xmlns:sodipodi="http://sodipodi.sourceforge.net/DTD/sodipodi-0.dtd"
   xmlns:inkscape="http://www.inkscape.org/namespaces/inkscape"
   version="1.1"
   id="Layer_1"
   x="0px"
   y="0px"
   viewBox="0 0 220.334 220.334"
   xml:space="preserve"
   inkscape:version="0.91 r13725"
   sodipodi:docname="pokeball.svg"
   width="220.334"
   height="220.334"><metadata
     id="metadata85"><rdf:RDF><cc:Work
         rdf:about=""><dc:format>image/svg+xml</dc:format><dc:type
           rdf:resource="http://purl.org/dc/dcmitype/StillImage" /><dc:title></dc:title></cc:Work></rdf:RDF></metadata><defs
     id="defs83" /><sodipodi:namedview
     pagecolor="#ffffff"
     bordercolor="#666666"
     borderopacity="1"
     objecttolerance="10"
     gridtolerance="10"
     guidetolerance="10"
     inkscape:pageopacity="0"
     inkscape:pageshadow="2"
     inkscape:window-width="853"
     inkscape:window-height="480"
     id="namedview81"
     showgrid="false"
     inkscape:zoom="1.868064"
     inkscape:cx="101.44192"
     inkscape:cy="105.99208"
     inkscape:window-x="0"
     inkscape:window-y="0"
     inkscape:window-maximized="0"
     inkscape:current-layer="Layer_1"
     borderlayer="true" /><g
     id="g3"
     transform="matrix(0.95062074,0,0,0.95062074,0,100.23828)"><g
       id="g5"><circle
         style="fill:#ff1a1a"
         cx="63.167"
         cy="63.166"
         r="61.667"
         id="circle7" /></g><g
       id="g9"><ellipse
         style="fill:#d60909"
         cx="63.167"
         cy="63.166"
         rx="61.667"
         ry="47.231998"
         id="ellipse11" /></g><g
       id="g13"><path
         style="fill:#ffffff"
         d="m 1.5,63.166 c 0,34.061 27.609,61.668 61.667,61.668 34.058,0 61.667,-27.607 61.667,-61.668 l -123.334,0 z"
         id="path15"
         inkscape:connector-curvature="0" /></g><g
       id="g17"><path
         style="fill:#d8e5ea"
         d="m 63.167,110.398 c 34.058,0 61.667,-21.148 61.667,-47.232 l -123.334,0 c 0,26.084 27.609,47.232 61.667,47.232 z"
         id="path19"
         inkscape:connector-curvature="0" /></g><path
       style="fill:#33363a"
       d="M 63.167,0 C 28.336,0 0,28.336 0,63.166 c 0,34.831 28.336,63.168 63.167,63.168 34.831,0 63.167,-28.337 63.167,-63.168 C 126.334,28.336 97.998,0 63.167,0 Z m 0,3 c 32.673,0 59.328,26.183 60.129,58.666 l -120.258,0 C 3.839,29.183 30.494,3 63.167,3 Z m 0,120.334 C 30.494,123.334 3.839,97.15 3.038,64.666 l 120.258,0 C 122.495,97.15 95.84,123.334 63.167,123.334 Z"
       id="path21"
       inkscape:connector-curvature="0" /><g
       id="g23"><circle
         style="fill:#a7bbc1"
         cx="63.167"
         cy="68.867996"
         r="16.764"
         id="circle25" /></g><g
       id="g27"><circle
         style="fill:#ffffff"
         cx="63.167"
         cy="63.167"
         r="16.764"
         id="circle29" /></g><g
       id="g31"><path
         style="fill:#d8e5ea"
         d="m 51.313,75.021 c -6.547,-6.547 -6.546,-17.16 0,-23.709 6.547,-6.546 17.161,-6.546 23.707,0"
         id="path33"
         inkscape:connector-curvature="0" /></g><g
       id="g35"><path
         style="fill:#33363a"
         d="m 63.167,81.432 c -4.878,0 -9.465,-1.9 -12.915,-5.35 -7.12,-7.12 -7.12,-18.707 0,-25.83 7.122,-7.12 18.708,-7.12 25.829,0 l 0,0 c 3.45,3.451 5.351,8.038 5.351,12.916 0,4.878 -1.9,9.465 -5.351,12.915 -3.449,3.449 -8.035,5.349 -12.914,5.349 z m 0,-33.522 c -3.909,0 -7.817,1.487 -10.793,4.463 -5.95,5.953 -5.95,15.637 0,21.588 2.883,2.883 6.716,4.471 10.793,4.471 4.077,0 7.91,-1.588 10.792,-4.471 2.883,-2.883 4.472,-6.716 4.472,-10.793 0,-4.077 -1.588,-7.91 -4.472,-10.794 C 70.985,49.398 67.076,47.91 63.167,47.91 Z"
         id="path37"
         inkscape:connector-curvature="0" /></g><g
       id="g39"><path
         style="fill:#ffffff"
         d="m 68.871,68.87 c -3.149,3.146 -8.257,3.146 -11.404,0 -3.149,-3.15 -3.148,-8.255 0,-11.403 3.148,-3.15 8.255,-3.148 11.403,0 3.149,3.148 3.149,8.253 10e-4,11.403 z"
         id="path41"
         inkscape:connector-curvature="0" /></g><g
       id="g43"><path
         style="fill:#d8e5ea"
         d="m 57.467,57.467 c 3.148,-3.15 8.255,-3.148 11.403,0 3.148,3.148 3.148,8.253 10e-4,11.403"
         id="path45"
         inkscape:connector-curvature="0" /></g><g
       id="g47"><path
         style="fill:#33363a"
         d="m 63.168,72.725 c -2.45,0 -4.898,-0.931 -6.762,-2.794 -3.729,-3.73 -3.729,-9.797 0,-13.525 1.805,-1.807 4.207,-2.802 6.761,-2.802 0,0 0,0 0,0 2.555,0 4.957,0.996 6.763,2.802 3.728,3.727 3.728,9.794 10e-4,13.524 0,0 0,10e-4 -10e-4,10e-4 -1.864,1.863 -4.313,2.794 -6.762,2.794 z M 63.167,56.604 c -1.753,0 -3.401,0.683 -4.64,1.923 -2.559,2.559 -2.559,6.723 0,9.282 2.558,2.557 6.723,2.557 9.283,0 2.558,-2.56 2.557,-6.724 -0.001,-9.282 -1.239,-1.239 -2.888,-1.922 -4.642,-1.923 l 0,0 z"
         id="path49"
         inkscape:connector-curvature="0" /></g></g><g
     id="g51"
     transform="translate(0,94.000004)" /><g
     id="g53"
     transform="translate(0,94.000004)" /><g
     id="g55"
     transform="translate(0,94.000004)" /><g
     id="g57"
     transform="translate(0,94.000004)" /><g
     id="g59"
     transform="translate(0,94.000004)" /><g
     id="g61"
     transform="translate(0,94.000004)" /><g
     id="g63"
     transform="translate(0,94.000004)" /><g
     id="g65"
     transform="translate(0,94.000004)" /><g
     id="g67"
     transform="translate(0,94.000004)" /><g
     id="g69"
     transform="translate(0,94.000004)" /><g
     id="g71"
     transform="translate(0,94.000004)" /><g
     id="g73"
     transform="translate(0,94.000004)" /><g
     id="g75"
     transform="translate(0,94.000004)" /><g
     id="g77"
     transform="translate(0,94.000004)" /><g
     id="g79"
     transform="translate(0,94.000004)" /></svg>